<?xml version="1.0" standalone="no"?>
<!DOCTYPE svg PUBLIC "-//W3C//DTD SVG 20010904//EN"
 "http://www.w3.org/TR/2001/REC-SVG-20010904/DTD/svg10.dtd">
<svg version="1.0" xmlns="http://www.w3.org/2000/svg"
 width="70.000000pt" height="69.000000pt" viewBox="0 0 70.000000 69.000000"
 preserveAspectRatio="xMidYMid meet">

<g transform="translate(0.000000,69.000000) scale(0.100000,-0.100000)"
fill="#000000" stroke="none">
<path d="M4 676 c-9 -23 0 -141 11 -141 6 0 11 28 13 63 l3 62 64 0 c51 0 65
3 65 15 0 21 -148 22 -156 1z"/>
<path d="M287 684 c-18 -18 -2 -24 64 -24 52 0 70 3 67 13 -5 13 -119 23 -131
11z"/>
<path d="M540 675 c0 -12 13 -15 65 -15 l64 0 3 -62 c4 -87 23 -75 23 15 l0
72 -77 3 c-65 2 -78 0 -78 -13z"/>
<path d="M307 504 c-4 -4 -7 -31 -7 -61 l0 -53 -56 0 -55 0 3 -47 3 -48 52 -3
52 -3 3 -52 3 -52 48 -3 47 -3 0 55 0 55 53 3 52 3 3 48 3 47 -55 0 -55 0 -3
58 -3 57 -40 3 c-23 2 -44 0 -48 -4z m63 -78 c0 -60 6 -66 71 -66 32 0 39 -3
39 -20 0 -18 -7 -20 -55 -20 l-55 0 0 -55 c0 -48 -2 -55 -20 -55 -18 0 -20 7
-20 55 l0 55 -55 0 c-48 0 -55 3 -55 19 0 17 8 20 53 23 l52 3 3 58 c3 49 6
57 22 57 17 0 20 -7 20 -54z"/>
<path d="M2 343 c4 -86 22 -85 26 2 2 54 0 65 -13 65 -13 0 -15 -11 -13 -67z"/>
<path d="M672 343 c4 -86 22 -85 26 2 2 54 0 65 -13 65 -13 0 -15 -11 -13 -67z"/>
<path d="M4 147 c-3 -8 -4 -43 -2 -78 l3 -64 78 -3 c64 -2 77 0 77 13 0 12
-13 15 -65 15 l-65 0 0 59 c0 57 -14 88 -26 58z"/>
<path d="M677 154 c-4 -4 -7 -34 -7 -66 l0 -58 -65 0 c-52 0 -65 -3 -65 -15 0
-13 13 -15 78 -13 l77 3 3 69 c3 65 -5 95 -21 80z"/>
<path d="M282 18 c3 -8 29 -14 71 -16 55 -2 67 0 67 13 0 12 -14 15 -71 15
-52 0 -70 -3 -67 -12z"/>
</g>
</svg>
