<?xml version="1.0" standalone="no"?>
<!DOCTYPE svg PUBLIC "-//W3C//DTD SVG 20010904//EN"
 "http://www.w3.org/TR/2001/REC-SVG-20010904/DTD/svg10.dtd">
<svg version="1.0" xmlns="http://www.w3.org/2000/svg"
 width="30.000000pt" height="30.000000pt" viewBox="0 0 30.000000 30.000000"
 preserveAspectRatio="xMidYMid meet">

<g transform="translate(0.000000,30.000000) scale(0.100000,-0.100000)"
fill="#000000" stroke="none">
<path d="M172 227 c-44 -44 -76 -86 -82 -107 -12 -41 -10 -43 26 -34 31 8 184
149 184 170 0 16 -28 44 -43 44 -7 0 -45 -33 -85 -73z m105 38 c3 -9 3 -19 -1
-22 -7 -7 -36 16 -36 28 0 15 30 10 37 -6z m-71 -94 c-53 -53 -57 -55 -73 -38
-16 16 -14 20 37 72 51 52 55 54 72 38 18 -16 17 -19 -36 -72z m-76 -62 c0 -5
-7 -9 -15 -9 -15 0 -20 12 -9 23 8 8 24 -1 24 -14z"/>
<path d="M12 258 c-18 -18 -16 -232 2 -247 9 -8 55 -11 137 -9 l124 3 1 55 c1
51 1 52 -3 8 l-4 -48 -125 0 -124 0 0 115 0 115 39 0 c22 0 43 5 46 10 9 14
-78 13 -93 -2z"/>
</g>
</svg>
