<svg version="1.2" xmlns="http://www.w3.org/2000/svg" viewBox="0 0 200 200" width="200" height="200">
	<title>Jacob_Barber_Logo</title>
	<style>
		.s0 { fill: #41818f } 
		.s1 { fill: #cfa365 } 
		.s2 { fill: #f7676a } 
		.s3 { fill: #f6c992 } 
	</style>
	<path id="Forma 19" class="s0" d="m90 147.7c4.9-7.1 14.8-11.1 23.3-6.7 6.9 3.5 9.6 3.5 14.2-1.6 1.3 0.1 2.2 0.6 2.6 1.6-5.4 7.2-11.7 6-18.6 2.3-6.1-3.1-14.1-0.9-19.3 6.3-1.7-0.4-2.2-0.9-2.2-1.9z"/>
	<path id="Forma 10" class="s1" d="m82.1 66.9c-4.3-6.8 15.8-15.4 18.9-6.9 2.2 6-14.9 12.4-18.9 6.9z"/>
	<path id="Forma 9" class="s0" d="m78.1 58.9c0.6-0.5 1.2-0.5 2-0.6-0.2-1.1 0.7-2.7 1.9-3.3 1.2-0.6 4.6-1.7 6-2 1.4-0.3 4.8-0.3 6.6-0.5 1.5-0.2 4.5 0 5.3 0.6 0.7 0.6-0.2 2.1 0.1 2.6 0.4 0.4 1.5-0.5 1.9 0.4 0.2 1.1-0.6 0.9-0.9 1.4-0.5 1.2 0.7 2-0.2 3.2-0.3 0.5-1.5 0.9-1.7 1.2-1 0.9-0.6 1.1-1.2 1.9-0.9 0.8-1.8 0-2.3 0.3-0.5 0.3 0.1 1.4-0.7 2.1-1.2 0.7-3-0.7-3.6-0.4-0.5 0.4 0.4 1.1-1.1 1.3-1.5 0.1-1.3-0.7-2.5-0.9-0.9 0.3-0.4 1.3-2 1.3-1.7-0.2-1.1-1.4-2-1.6-0.9-0.2-2.2 0.6-2.6 0.4-0.5-0.4-0.1-1.7-0.4-2-0.4-0.2-1.7 0-1.8-0.3-0.1-0.4-0.8-1.2 0-2.1 0.5-0.4 0.7-0.6 0.9-0.8-0.6-0.3-1.5-0.5-1.9-1-0.3-0.6-0.1-0.8 0.2-1.2z"/>
	<path id="Forma 8" class="s2" d="m83.2 53.1c1.3-0.1 8.5-2.1 10.4-2 2.7-0.4 5.3 3 6.3 4.1 2.3 4.1-4 8.6-6.8 9.4-4.5 1.1-12.9 0.2-13.6-3-0.4-2-0.1-6.4 3.7-8.5z"/>
	<path id="Forma 7" class="s0" d="m78.7 59.9c-0.1-0.3-0.1-0.5 0.1-0.8 0.7-0.7 8.2-8 9.1-7.9 0.8 0.1 10.1 1.4 11.4 2.2 0.2 0.1 0.5 0.3 0.5 0.7 0 0.9-6.5 9.2-8.4 9.5-2 0.1-12.5-3-12.7-3.7z"/>
	<path id="Forma 6" fill-rule="evenodd" class="s1" d="m83.9 45.6c2.8-1.2 10.8-2.8 14.4 2.1 3.3 5.4-1 8.1-2.5 9.4-3.1 2.8-11.5 5.2-16.1 2.1-5.1-3.8-3.2-10.1 4.2-13.6z"/>
	<path id="Forma 18" class="s3" d="m89.4 46.6c-0.4-0.3 0-0.7 0.4-0.5 0.4 0.3 0 0.8-0.4 0.5z"/>
	<path id="Forma 17" class="s3" d="m92.3 47.7c0.4 0.4 1-0.1 0.6-0.6-0.4-0.3-1 0.2-0.6 0.6z"/>
	<path id="Forma 16" class="s3" d="m90.3 51.2c-0.9-0.6 0.1-1.5 1-1 0.8 0.6 0 1.5-1 1z"/>
	<path id="Forma 15" class="s3" d="m86.7 49.5c0.3 0.2 0.4-0.1 0.3-0.3-0.3-0.1-0.6 0.1-0.3 0.3z"/>
	<path id="Forma 14" class="s3" d="m87.3 48.6c0.3 0.4 0.9 0 0.6-0.5-0.3-0.3-1 0.1-0.6 0.5z"/>
	<path id="Forma 13" class="s3" d="m83.3 47.5c0.3 0.2 0.7-0.2 0.5-0.5-0.3-0.2-0.8 0.2-0.5 0.5z"/>
	<path id="Forma 12" class="s3" d="m84.4 52.6c0.4 0.4 1.2-0.1 0.6-0.7-0.5-0.4-1.2 0.2-0.6 0.7z"/>
	<path id="Forma 11" class="s3" d="m81.5 50.6c0.3 0.3 0.7-0.2 0.4-0.4-0.3-0.3-0.7 0.1-0.4 0.4z"/>
	<path id="Forma 1" fill-rule="evenodd" class="s2" d="m21.1 83.1c0 0 14.8-1.5 4.9-15.1 6.5 1.2 14.1-4.3 7-13 7.7 1.7 13.6-0.9 10-12 9.9 2.4 13.8 0.8 12-10 7.5 4.2 12.2 4.6 13.7-7.7 6.3 6 13.4 6.7 15.2-4.4 6.2 8.1 9.4 7.7 16.1-1.9 6.6 10.6 10.3 8.4 16 2 2.5 9.8 7.1 10.5 15.5 4.6 0.4 9.1 4.2 12.1 13.5 7.4-1.3 10.1 1.9 12.6 12 10-3.4 10.6 2.1 12.6 10 12-5.8 8.4-3.4 11.6 7.8 13.6-7.6 9.1-4.4 12.5 4.2 15.4-8.2 5.3-7 11.2 2.1 15.5-8.9 4.9-9.3 11.7-2.1 16.5-8.5 2.4-11.7 5.2-4 15-10.8 1.7-11.8 3.4-8 14-11.1-1.7-12.4 3.3-10 12-11.1-3.5-13.3 1.9-12.1 9.8-9-5.7-13.1-1.8-13.1 7.6-8.5-6.6-14-4.4-15.8 4.6-5.8-7.7-11.7-7.2-16 2-4.8-9.1-10.8-9.9-16.3-2-1.8-11-10.1-9.8-14.9-4.6-1.3-10-5.5-12.4-14.2-7.4 2.2-10.3-1.8-12.7-11.6-10 2.9-9.3 0.7-13.3-10-12 6.1-8.9 2.3-13.5-8-13.6 7.1-7.5 5.5-13.3-4-15.4 9.1-6.3 5.6-12.1-2-16 8.4-2.8 9.3-10.9 2.1-16.9zm147 18.8c-0.4-39.6-28.2-68.7-67.3-70-39-0.7-67.8 32.5-68.4 70 0.9 36.1 27.8 64.1 67.6 65.7 35.4-0.3 68.2-28.9 68.1-65.7z"/>
	<path id="Lou's" fill-rule="evenodd" class="s0" d="m75 104.2l2.9-1.6q1.5 0.1 2.1 2.4 0.4 1.6-0.1 3.3-0.6 1.8-2.1 2.2l-6 1.2q-1.3 0.3-2.3 0.9-1.7-1.5-2.2-3.3-0.4-1.9 1-2.5l-5.5-17.7q2.2-2.2 4.1-2.7 1.9-0.4 3.1 0.4 1.4 0.8 2 3.5 1.7 6.5 3 13.9zm18.6-8.5q1.2 5-0.3 8.1-1.5 3.2-4.7 4-2.3 0.5-4.5-0.6-1.2-0.6-2.2-2.1-1.1-1.6-1.6-3.9-0.9-3.6-0.1-5.7 0.9-2.3 2.3-3 0.2-1.9 1.8-3 0.7-0.5 1.7-0.7 5.5-1.4 7.6 6.9zm-8.7 2.9q1.3 5.3 3.2 4.8 1.7-0.4 0.5-5.4-0.7-2.4-1.7-3.2-1-0.8-2.4-0.5-0.3 1.3 0.4 4.3zm17.2-13.5q1-0.8 2-1 1-0.3 1.9 0.4 1 0.8 1.3 1.9l3 11.8 1.2 1.6q-0.1 0.2-0.3 0.7-0.1 0.4-0.8 1.2-0.7 0.8-1.6 1-2.2 0.5-3.3-1.7-0.2 1.1-0.9 2-0.7 0.9-1.9 1.2-2.1 0.6-3.8-0.4-1.6-1.1-2.1-3.2l-2.5-9.8-1.3-2.2q0.3-0.8 1.2-1.5 1-0.8 2-1.1 1-0.2 1.9 0.5 1 0.7 1.3 1.9l2.1 8.5q0.4 1.5 1 2 0.7 0.5 2.3 0.1l-2.6-10.2-1.4-2.2q0.4-0.7 1.3-1.5zm5.5-5.7q0.8-1.2 2-1.5 1.3-0.3 2 0.1 0.6 0.4 0.9 1.5 0.5 2.2 0.9 5.8l0.1 1.3q-0.6 0.4-1.1 0.5-1.3 0.4-2.2-0.8-1.3-1.7-2.6-6.9zm12.6 5.2l0.1 0.3q0.3 1.4 3.1 1.9 1.1 0.2 2.3 0.6 1.2 0.3 2.2 1.2 1 0.9 1.4 2.5 0.7 2.7-0.8 4.9-1.4 2.1-4.2 2.8-2.7 0.7-4.5-0.1-1.8-0.9-2.1-2.2-0.2-0.9 0-1.7 0.3-0.9 0.7-1.2l0.3-0.4q0.3 0.3 0.8 0.7 0.5 0.3 1.9 0.8 1.4 0.5 2.2 0.3 0.9-0.2 1.2-0.6 0.2-0.3 0.2-0.6-0.2-0.6-1.5-1-1.2-0.4-2.6-0.7-1.5-0.2-2.9-1.1-1.3-0.8-1.7-2.2-0.4-1.5 0.2-3 0.5-1.5 1.5-2.3-0.1-1.2 0.9-2.3 1.1-1.2 3-1.6 1.9-0.5 3.2 0.1 1.4 0.6 1.8 2 0.3 1.5 0.1 2.3-0.3 0.7-1.1 1.4-2-1.4-5.7-0.8z"/>
	<path id="Burger" fill-rule="evenodd" class="s0" d="m78.6 112.7q0.6-0.2 1.2-0.1 0.5 0.2 1.1 0.9 0.4-1.7 1.9-2.2 3.6-1 4.8 2.9 0.3 1.2 0.1 2.3-0.2 1.1-0.8 1.8 1.9 0.1 2.3 1.6 0.5 1.7-0.3 2.9-0.9 1.2-2.3 1.6-1.5 0.4-2.9-0.1-0.2 1-1.1 1.3-0.5 0.1-1.1 0-0.5 0-0.8-0.2l-0.3-0.1q0-0.8-0.9-3.7-1.2-4.4-2.2-7.1l-0.2-0.7q0.3-0.8 1.5-1.1zm3.4 3q0.4 1.1 0.6 1.8 0.2 0.8 0.5 1.9 0.4-0.4 1.4-0.7 0.4-0.9 0.1-1.7-0.5-1.9-2.6-1.3zm2.2 4.7l-0.8 0.3q0.2 0.7 0.4 1.6 0.7 0.4 1.2 0.2 0.5-0.1 0.7-0.4 0.1-0.4 0-0.9-0.2-0.6-0.6-0.7-0.5-0.2-0.9-0.1zm8.7-8.1q0.5-0.5 1-0.6 0.5-0.2 1.1 0.2 0.5 0.4 0.7 1l1.8 6.1 0.6 0.8q0 0.2-0.1 0.4-0.1 0.2-0.4 0.7-0.4 0.4-0.8 0.5-1.2 0.4-1.8-0.8-0.1 0.6-0.4 1.1-0.4 0.5-1 0.7-1.1 0.3-2-0.2-0.9-0.5-1.2-1.6l-1.5-5.2-0.8-1.1q0.2-0.4 0.7-0.8 0.5-0.5 1-0.6 0.5-0.2 1 0.2 0.6 0.4 0.7 1l1.3 4.4q0.2 0.8 0.6 1.1 0.3 0.2 1.2 0l-1.6-5.4-0.7-1.1q0.1-0.4 0.6-0.8zm7.9 8q-1.5 0.4-2.1-1.8l-1.6-5.4-0.7-1.2q0-0.1 0.1-0.3 0.1-0.2 0.5-0.5 0.4-0.4 0.9-0.5 1.1-0.4 1.8 1 0.5-1.6 1.7-2 1.2-0.3 1.6 0.8 0.3 1.1 0 1.8-0.2 0.7-0.6 1.2-1-0.5-2.3-0.4l1.4 4.8 0.7 0.9q0 0.1-0.1 0.3-0.1 0.2-0.4 0.7-0.4 0.4-0.9 0.6zm8.2-3.6l-0.3-0.9q-0.3 1-1.4 1.3-1.1 0.3-1.9-0.2-0.8-0.5-1.1-1.6l-0.6-1.9q-0.3-1 0.2-2.2 0.5-1.2 1.2-1.7 0.5-1.1 1.5-1.4 1.2-0.3 2 0.1 0.8 0.4 1.1 0.8l0.1 0.1 1.8 6.1q0.6 1.9 0 3.2-0.6 1.3-2.3 1.8-1 0.3-1.6 0.2-0.7-0.2-0.9-0.5-0.3-0.3-0.3-0.5-0.1-0.2-0.1-0.5-0.1-0.3 0.1-0.7 0.8 0.3 1.6 0.1 1.2-0.4 0.9-1.6zm-3.2-5.8l0.8 2.9q0.4 1.4 1.9 1.1l-1.1-3.6q-0.4-0.5-1.6-0.4zm12.8 1.4q0.3 0.1 0.4 0.5 0.1 0.3 0 0.7-0.1 0.4-0.3 0.8-0.2 0.4-0.8 0.8-0.6 0.4-1.3 0.6-0.7 0.2-1.4 0.2-0.6-0.1-1.3-0.4-1.4-0.7-2.1-3-0.7-2.3-0.2-3.6 0.4-1.4 1.4-1.8 0.5-1 1.5-1.3 1.1-0.3 1.9 0.3 0.9 0.5 1.3 1.8 0.4 1.5-0.4 2.7-0.7 1-1.9 1.8 0.9 0.6 2.4 0.2 0.4-0.1 0.8-0.3zm-3.2-2.7q-0.3-1.2-1.7-0.9l0.5 1.7q0.2 0.8 0.5 1.2 1-1 0.7-2zm6.6 4.5q-1.4 0.5-2.1-1.7l-1.6-5.5-0.7-1.1q0-0.1 0.1-0.3 0.1-0.2 0.5-0.6 0.4-0.3 0.9-0.5 1.1-0.3 1.8 1.1 0.5-1.7 1.7-2 1.2-0.4 1.6 0.8 0.3 1 0 1.8-0.2 0.7-0.5 1.2-1.1-0.5-2.3-0.4l1.4 4.8 0.6 0.8q0 0.2-0.1 0.4-0.1 0.2-0.4 0.6-0.4 0.5-0.9 0.6z"/>
	<path id="Forma 5" fill-rule="evenodd" class="s2" d="m36 102.7c-0.9-36.1 26.8-66.2 63.3-67 37.2-0.5 65 29.2 65.7 63.2 0.8 29.5-22.5 64.6-65.4 65-32.5-1-61.6-26.6-63.6-61.2zm108.8-44.5c-18.9-19.8-43-20.6-56.6-18.2-12.6 2.4-37.3 13.4-46.4 43.3 8.3-1.2 51.6-12.1 57.8-13.7 7-1.7 39.9-10 45.2-11.4zm14.6 55.9c5.3-15.9-2-44.4-12.3-53.5-10.6 2.6-93.2 23.5-106.1 26.7-4 14.4 0.9 40.3 13.8 52.6 14.4-3.6 88.9-22 104.6-25.8zm-0.7 3.6c-10.9 2.7-42.5 10.1-51.1 12.1-8.3 2-42.5 10.8-50.2 12.8 14.2 14 36 21.7 57.9 16.3 20.8-4.9 38.8-23 43.4-41.2z"/>
</svg>