<?xml version="1.0" standalone="no"?>
<!DOCTYPE svg PUBLIC "-//W3C//DTD SVG 20010904//EN"
 "http://www.w3.org/TR/2001/REC-SVG-20010904/DTD/svg10.dtd">
<svg version="1.0" xmlns="http://www.w3.org/2000/svg"
 width="50.000000pt" height="50.000000pt" viewBox="0 0 50.000000 50.000000"
 preserveAspectRatio="xMidYMid meet">

<g transform="translate(0.000000,50.000000) scale(0.100000,-0.100000)"
fill="#000000" stroke="none">
<path d="M162 483 c-57 -20 -126 -91 -146 -150 -52 -154 47 -314 206 -330 102
-10 193 36 245 124 24 41 28 59 28 123 0 64 -4 82 -28 122 -63 107 -187 153
-305 111z m159 -13 c48 -13 118 -75 140 -124 36 -78 17 -200 -38 -249 -20 -17
-22 -17 -67 5 -54 26 -57 42 -21 104 22 37 24 50 18 104 -9 87 -33 114 -102
114 -71 0 -92 -22 -102 -109 -8 -60 -6 -72 16 -115 14 -27 22 -55 19 -63 -3
-8 -24 -24 -46 -37 l-42 -23 -28 34 c-72 86 -63 215 22 299 63 64 143 84 231
60z m-5 -84 c6 -9 14 -43 17 -76 6 -54 4 -65 -19 -101 -36 -57 -30 -88 24
-117 23 -13 42 -27 42 -32 0 -15 -81 -40 -133 -40 -31 0 -70 9 -97 21 l-45 21
30 15 c71 36 80 64 45 136 -15 31 -19 53 -15 87 10 78 15 91 38 100 31 13 99
5 113 -14z"/>
</g>
</svg>
