<?xml version="1.0" standalone="no"?>
<!DOCTYPE svg PUBLIC "-//W3C//DTD SVG 20010904//EN"
 "http://www.w3.org/TR/2001/REC-SVG-20010904/DTD/svg10.dtd">
<svg version="1.0" xmlns="http://www.w3.org/2000/svg"
 width="24.000000pt" height="30.000000pt" viewBox="0 0 24.000000 30.000000"
 preserveAspectRatio="xMidYMid meet">

<g transform="translate(0.000000,30.000000) scale(0.100000,-0.100000)"
fill="#000000" stroke="none">
<path d="M78 281 c-8 -11 -27 -21 -43 -23 -23 -2 -31 -9 -33 -27 -2 -13 1 -28
7 -34 6 -6 11 -46 11 -88 0 -112 -3 -109 100 -109 103 0 100 -3 100 109 0 42
5 82 11 88 6 6 9 21 7 34 -2 18 -10 25 -33 27 -16 2 -35 12 -43 23 -17 25 -67
25 -84 0z m72 -11 c0 -5 -13 -10 -30 -10 -16 0 -30 5 -30 10 0 6 14 10 30 10
17 0 30 -4 30 -10z m70 -40 c0 -6 -40 -10 -100 -10 -60 0 -100 4 -100 10 0 6
40 10 100 10 60 0 100 -4 100 -10z m-17 -37 c3 -5 2 -45 -1 -90 l-5 -83 -77 0
-78 0 -4 83 c-3 45 -3 85 -1 90 5 9 161 9 166 0z"/>
<path d="M67 173 c-11 -10 -8 -121 3 -128 6 -4 10 20 10 64 0 71 -1 77 -13 64z"/>
<path d="M110 110 c0 -40 4 -70 10 -70 6 0 10 30 10 70 0 40 -4 70 -10 70 -6
0 -10 -30 -10 -70z"/>
<path d="M160 110 c0 -45 4 -69 10 -65 6 3 10 33 10 65 0 32 -4 62 -10 65 -6
4 -10 -20 -10 -65z"/>
</g>
</svg>
